<svg width="536" height="482" viewBox="0 0 536 482" fill="none" xmlns="http://www.w3.org/2000/svg">
<path d="M521.308 0H14C6.26801 0 0 6.26802 0 14V109.522C0 117.254 6.26801 123.522 14 123.522H33.6902C40.7078 123.522 46.6412 128.717 47.5677 135.673L92.003 469.296C92.9295 476.252 98.8629 481.448 105.88 481.448H409.857C416.642 481.448 422.451 476.582 423.64 469.903L483.282 135.067C484.472 128.387 490.28 123.522 497.065 123.522H521.308C529.04 123.522 535.308 117.254 535.308 109.522V14C535.308 6.26801 529.04 0 521.308 0Z" fill="#D9D9D9"/>
</svg>
